<?xml version="1.0" encoding="UTF-8"?>
<svg width="15px" height="17px" viewBox="0 0 15 17" version="1.1" xmlns="http://www.w3.org/2000/svg" xmlns:xlink="http://www.w3.org/1999/xlink">
    <title>Calendar</title>
    <g id="Page-1" stroke="none" stroke-width="1" fill="none" fill-rule="evenodd">
        <g id="TP-test-form" transform="translate(-549.000000, -107.000000)">
            <g id="Widest-form" transform="translate(50.000000, 50.000000)">
                <rect id="bg" fill="#4A90E2" x="0" y="0" width="1024" height="100"></rect>
                <g id="Input1" transform="translate(324.000000, 45.000000)">
                    <rect id="input1" fill="#FFFFFF" x="0" y="0" width="200" height="40" rx="2"></rect>
                    <path d="M177,19.9977418 C177,19.9977418 177.001596,27.2488688 177,27 L188.002502,26.9989014 C188.000907,26.9989014 187.997314,19.9994507 187.997314,19.9994507 L177,19.9977418 L177,19.9977418 L177,19.9977418 Z M183,23 L187,23 L187,26 L183,26 L183,23 L183,23 L183,23 Z M190,18 L190,27 C190,28.105 189.105,29 188,29 L177,29 C175.895,29 175,28.105 175,27 L175,18 L190,18 L190,18 L190,18 Z M187,13.9994999 L187,13.0002501 C187,12.448112 186.552,12 186,12 L185,12 C184.448,12 184,12.448112 184,13.0002501 L184,13.9994999 L181,13.9994999 L181,13.0002501 C181,12.448112 180.552,12 180,12 L179,12 C178.448,12 178,12.448112 178,13.0002501 L178,13.9994999 L177,13.9994999 C175.895,13.9994999 175,14.8947237 175,16 L190,16 C190,14.8947237 189.105,13.9994999 188,13.9994999 L187,13.9994999 L187,13.9994999 L187,13.9994999 Z" id="Calendar" fill="#4A90E2"></path>
                </g>
            </g>
        </g>
    </g>
</svg>
